<svg width="66" height="37" viewBox="0 0 66 37" fill="none" xmlns="http://www.w3.org/2000/svg">
<rect x="1.65039" y="1" width="63.1104" height="34.8765" rx="2" fill="#FF952D" stroke="#FF952D" stroke-width="2"/>
<path d="M49.6746 18.7929C49.6746 23.4248 45.4324 27.3667 39.9552 27.3667C34.4781 27.3667 30.2358 23.4248 30.2358 18.7929C30.2358 14.1611 34.4781 10.2192 39.9552 10.2192C45.4324 10.2192 49.6746 14.1611 49.6746 18.7929Z" fill="#FF952D" stroke="#F3EDEC" stroke-width="2"/>
<path d="M49.6746 18.7929C49.6746 23.4248 45.4324 27.3667 39.9552 27.3667C34.4781 27.3667 30.2358 23.4248 30.2358 18.7929C30.2358 14.1611 34.4781 10.2192 39.9552 10.2192C45.4324 10.2192 49.6746 14.1611 49.6746 18.7929Z" fill="#FF952D" stroke="#F3EDEC" stroke-width="2"/>
<path d="M36.1761 18.7929C36.1761 23.4248 31.9339 27.3667 26.4567 27.3667C20.9795 27.3667 16.7373 23.4248 16.7373 18.7929C16.7373 14.1611 20.9795 10.2192 26.4567 10.2192C31.9339 10.2192 36.1761 14.1611 36.1761 18.7929Z" stroke="#F3EDEC" stroke-width="2"/>
<path d="M36.1761 18.7929C36.1761 23.4248 31.9339 27.3667 26.4567 27.3667C20.9795 27.3667 16.7373 23.4248 16.7373 18.7929C16.7373 14.1611 20.9795 10.2192 26.4567 10.2192C31.9339 10.2192 36.1761 14.1611 36.1761 18.7929Z" stroke="#F3EDEC" stroke-width="2"/>
</svg>
