<svg width="66" height="37" viewBox="0 0 66 37" fill="none" xmlns="http://www.w3.org/2000/svg">
<rect x="1" y="1" width="63.1104" height="34.8765" rx="2" fill="#E74F98" stroke="#E74F98" stroke-width="2"/>
<path d="M35.5252 18.7929C35.5252 23.4248 31.283 27.3667 25.8058 27.3667C20.3287 27.3667 16.0864 23.4248 16.0864 18.7929C16.0864 14.1611 20.3287 10.2192 25.8058 10.2192C31.283 10.2192 35.5252 14.1611 35.5252 18.7929Z" fill="white" stroke="#9C2222" stroke-width="2"/>
<path d="M49.0243 18.7929C49.0243 23.4248 44.782 27.3667 39.3048 27.3667C33.8277 27.3667 29.5854 23.4248 29.5854 18.7929C29.5854 14.1611 33.8277 10.2192 39.3048 10.2192C44.782 10.2192 49.0243 14.1611 49.0243 18.7929Z" fill="white" stroke="#9C2222" stroke-width="2"/>
<path d="M35.5252 18.7929C35.5252 23.4248 31.283 27.3667 25.8058 27.3667C20.3287 27.3667 16.0864 23.4248 16.0864 18.7929C16.0864 14.1611 20.3287 10.2192 25.8058 10.2192C31.283 10.2192 35.5252 14.1611 35.5252 18.7929Z" stroke="#E74F98" stroke-width="2"/>
<path d="M49.0243 18.7929C49.0243 23.4248 44.782 27.3667 39.3048 27.3667C33.8277 27.3667 29.5854 23.4248 29.5854 18.7929C29.5854 14.1611 33.8277 10.2192 39.3048 10.2192C44.782 10.2192 49.0243 14.1611 49.0243 18.7929Z" stroke="#E74F98" stroke-width="2"/>
</svg>
